<svg width="27" height="27" viewBox="0 0 27 27" fill="none" xmlns="http://www.w3.org/2000/svg">
<g clip-path="url(#clip0_2307_46820)">
<path d="M21.3305 0H5.33264C2.3875 0 0 2.3875 0 5.33264V21.3305C0 24.2757 2.3875 26.6632 5.33264 26.6632H21.3305C24.2757 26.6632 26.6632 24.2757 26.6632 21.3305V5.33264C26.6632 2.3875 24.2757 0 21.3305 0Z" fill="#E9F1FF"/>
<path d="M17.8192 8.53259C17.39 8.53259 17.0225 8.37594 16.7169 8.06265C16.4113 7.74936 16.2584 7.37274 16.2584 6.9328C16.2584 6.49286 16.4113 6.11624 16.7169 5.80295C17.0225 5.48965 17.39 5.33301 17.8192 5.33301C18.2484 5.33301 18.6158 5.48965 18.9215 5.80295C19.2272 6.11624 19.38 6.49286 19.38 6.9328C19.38 7.37274 19.2272 7.74936 18.9215 8.06265C18.6158 8.37594 18.2484 8.53259 17.8192 8.53259ZM17.0388 21.3309V14.9318C17.0388 14.3985 16.9055 13.9186 16.6389 13.4919C16.3722 13.0653 16.0308 12.732 15.6146 12.4921L16.2974 10.4323C16.4014 10.0991 16.5933 9.83242 16.873 9.63245C17.1527 9.43247 17.468 9.33249 17.8192 9.33249C18.1704 9.33249 18.4858 9.43247 18.7654 9.63245C19.0451 9.83242 19.2369 10.0991 19.3409 10.4323L21.3309 16.5315H19.38V21.3309H17.0388ZM13.527 12.932C13.2019 12.932 12.9255 12.8154 12.6979 12.5821C12.4703 12.3488 12.3565 12.0655 12.3565 11.7322C12.3565 11.3989 12.4703 11.1156 12.6979 10.8823C12.9255 10.649 13.2019 10.5323 13.527 10.5323C13.8522 10.5323 14.1287 10.649 14.3562 10.8823C14.5838 11.1156 14.6976 11.3989 14.6976 11.7322C14.6976 12.0655 14.5838 12.3488 14.3562 12.5821C14.1287 12.8154 13.8522 12.932 13.527 12.932ZM8.06436 8.53259C7.63515 8.53259 7.26771 8.37594 6.96206 8.06265C6.65641 7.74936 6.50359 7.37274 6.50359 6.9328C6.50359 6.49286 6.65641 6.11624 6.96206 5.80295C7.26771 5.48965 7.63515 5.33301 8.06436 5.33301C8.49357 5.33301 8.861 5.48965 9.16665 5.80295C9.47231 6.11624 9.62513 6.49286 9.62513 6.9328C9.62513 7.37274 9.47231 7.74936 9.16665 8.06265C8.861 8.37594 8.49357 8.53259 8.06436 8.53259ZM6.50359 21.3309V15.7316H5.33301V10.9323C5.33301 10.4923 5.48583 10.1157 5.79148 9.80242C6.09713 9.48913 6.46457 9.33249 6.89378 9.33249H9.23494C9.66415 9.33249 10.0316 9.48913 10.3372 9.80242C10.6429 10.1157 10.7957 10.4923 10.7957 10.9323V15.7316H9.62513V21.3309H6.50359ZM12.3565 21.3309V18.1313H11.5761V14.9318C11.5761 14.5985 11.6899 14.3152 11.9175 14.0819C12.1451 13.8486 12.4215 13.7319 12.7467 13.7319H14.3074C14.6326 13.7319 14.909 13.8486 15.1367 14.0819C15.3642 14.3152 15.4781 14.5985 15.4781 14.9318V18.1313H14.6976V21.3309H12.3565Z" fill="#92B7FF"/>
</g>
<defs>
<clipPath id="clip0_2307_46820">
<rect width="26.6632" height="26.6632" fill="white"/>
</clipPath>
</defs>
</svg>
