<svg width="27" height="27" viewBox="0 0 27 27" fill="none" xmlns="http://www.w3.org/2000/svg">
<g clip-path="url(#clip0_2307_46860)">
<path d="M21.3305 0H5.33264C2.3875 0 0 2.3875 0 5.33264V21.3305C0 24.2757 2.3875 26.6632 5.33264 26.6632H21.3305C24.2757 26.6632 26.6632 24.2757 26.6632 21.3305V5.33264C26.6632 2.3875 24.2757 0 21.3305 0Z" fill="#E9F1FF"/>
<mask id="mask0_2307_46860" style="mask-type:alpha" maskUnits="userSpaceOnUse" x="5" y="4" width="17" height="17">
<rect x="5.33301" y="4.80176" width="15.9979" height="15.9979" fill="#92B7FF"/>
</mask>
<g mask="url(#mask0_2307_46860)">
<path d="M13.3322 14.1337C13.1434 14.1337 12.985 14.0698 12.8573 13.9421C12.7295 13.8143 12.6656 13.656 12.6656 13.4671C12.6656 13.2783 12.7295 13.12 12.8573 12.9922C12.985 12.8644 13.1434 12.8006 13.3322 12.8006C13.5211 12.8006 13.6794 12.8644 13.8072 12.9922C13.9349 13.12 13.9988 13.2783 13.9988 13.4671C13.9988 13.656 13.9349 13.8143 13.8072 13.9421C13.6794 14.0698 13.5211 14.1337 13.3322 14.1337ZM10.6659 14.1337C10.477 14.1337 10.3187 14.0698 10.191 13.9421C10.0632 13.8143 9.99933 13.656 9.99933 13.4671C9.99933 13.2783 10.0632 13.12 10.191 12.9922C10.3187 12.8644 10.477 12.8006 10.6659 12.8006C10.8548 12.8006 11.0131 12.8644 11.1408 12.9922C11.2686 13.12 11.3325 13.2783 11.3325 13.4671C11.3325 13.656 11.2686 13.8143 11.1408 13.9421C11.0131 14.0698 10.8548 14.1337 10.6659 14.1337ZM15.9985 14.1337C15.8097 14.1337 15.6514 14.0698 15.5236 13.9421C15.3958 13.8143 15.332 13.656 15.332 13.4671C15.332 13.2783 15.3958 13.12 15.5236 12.9922C15.6514 12.8644 15.8097 12.8006 15.9985 12.8006C16.1874 12.8006 16.3457 12.8644 16.4735 12.9922C16.6012 13.12 16.6651 13.2783 16.6651 13.4671C16.6651 13.656 16.6012 13.8143 16.4735 13.9421C16.3457 14.0698 16.1874 14.1337 15.9985 14.1337ZM13.3322 16.8C13.1434 16.8 12.985 16.7362 12.8573 16.6084C12.7295 16.4806 12.6656 16.3223 12.6656 16.1335C12.6656 15.9446 12.7295 15.7863 12.8573 15.6585C12.985 15.5308 13.1434 15.4669 13.3322 15.4669C13.5211 15.4669 13.6794 15.5308 13.8072 15.6585C13.9349 15.7863 13.9988 15.9446 13.9988 16.1335C13.9988 16.3223 13.9349 16.4806 13.8072 16.6084C13.6794 16.7362 13.5211 16.8 13.3322 16.8ZM10.6659 16.8C10.477 16.8 10.3187 16.7362 10.191 16.6084C10.0632 16.4806 9.99933 16.3223 9.99933 16.1335C9.99933 15.9446 10.0632 15.7863 10.191 15.6585C10.3187 15.5308 10.477 15.4669 10.6659 15.4669C10.8548 15.4669 11.0131 15.5308 11.1408 15.6585C11.2686 15.7863 11.3325 15.9446 11.3325 16.1335C11.3325 16.3223 11.2686 16.4806 11.1408 16.6084C11.0131 16.7362 10.8548 16.8 10.6659 16.8ZM15.9985 16.8C15.8097 16.8 15.6514 16.7362 15.5236 16.6084C15.3958 16.4806 15.332 16.3223 15.332 16.1335C15.332 15.9446 15.3958 15.7863 15.5236 15.6585C15.6514 15.5308 15.8097 15.4669 15.9985 15.4669C16.1874 15.4669 16.3457 15.5308 16.4735 15.6585C16.6012 15.7863 16.6651 15.9446 16.6651 16.1335C16.6651 16.3223 16.6012 16.4806 16.4735 16.6084C16.3457 16.7362 16.1874 16.8 15.9985 16.8ZM8.66617 19.4664C8.29955 19.4664 7.9857 19.3358 7.72462 19.0747C7.46355 18.8137 7.33301 18.4998 7.33301 18.1332V8.80108C7.33301 8.43447 7.46355 8.12062 7.72462 7.85954C7.9857 7.59846 8.29955 7.46792 8.66617 7.46792H9.33275V6.13477H10.6659V7.46792H15.9985V6.13477H17.3317V7.46792H17.9983C18.3649 7.46792 18.6787 7.59846 18.9398 7.85954C19.2009 8.12062 19.3314 8.43447 19.3314 8.80108V18.1332C19.3314 18.4998 19.2009 18.8137 18.9398 19.0747C18.6787 19.3358 18.3649 19.4664 17.9983 19.4664H8.66617ZM8.66617 18.1332H17.9983V11.4674H8.66617V18.1332Z" fill="#92B7FF"/>
</g>
</g>
<defs>
<clipPath id="clip0_2307_46860">
<rect width="26.6632" height="26.6632" fill="white"/>
</clipPath>
</defs>
</svg>
