<svg width="27" height="27" viewBox="0 0 27 27" fill="none" xmlns="http://www.w3.org/2000/svg">
<g clip-path="url(#clip0_2307_46918)">
<path d="M21.3305 0H5.33264C2.3875 0 0 2.3875 0 5.33264V21.3305C0 24.2757 2.3875 26.6632 5.33264 26.6632H21.3305C24.2757 26.6632 26.6632 24.2757 26.6632 21.3305V5.33264C26.6632 2.3875 24.2757 0 21.3305 0Z" fill="#E9F1FF"/>
<mask id="mask0_2307_46918" style="mask-type:alpha" maskUnits="userSpaceOnUse" x="5" y="4" width="17" height="17">
<rect x="5.33301" y="4.80078" width="15.9979" height="15.9979" fill="#92B7FF"/>
</mask>
<g mask="url(#mask0_2307_46918)">
<path d="M10.665 7.46777H15.998V6.13477H17.3311V7.46777H17.998C18.3645 7.46788 18.6785 7.5984 18.9395 7.85938C19.2004 8.1204 19.3311 8.43428 19.3311 8.80078V14.3975C18.9673 14.2427 18.5762 14.1552 18.166 14.1367L17.998 14.1338V11.4668H8.66504V18.1328H14.7266C14.8184 18.6167 15.0134 19.0663 15.3125 19.4658H8.66504C8.29862 19.4657 7.9846 19.3352 7.72363 19.0742C7.46272 18.8132 7.33203 18.4993 7.33203 18.1328V8.80078C7.33203 8.43428 7.46273 8.1204 7.72363 7.85938C7.9846 7.59841 8.29862 7.46788 8.66504 7.46777H9.33203V6.13477H10.665V7.46777ZM10.665 15.4668C10.8539 15.4668 11.0129 15.5304 11.1406 15.6582C11.2682 15.7859 11.332 15.9442 11.332 16.1328C11.332 16.3217 11.2684 16.4806 11.1406 16.6084C11.0129 16.7362 10.8539 16.7998 10.665 16.7998C10.4764 16.7998 10.3181 16.736 10.1904 16.6084C10.0627 16.4806 9.99902 16.3217 9.99902 16.1328C9.99909 15.9441 10.0627 15.7859 10.1904 15.6582C10.3181 15.5305 10.4763 15.4668 10.665 15.4668ZM13.332 15.4668C13.5207 15.4669 13.679 15.5306 13.8066 15.6582C13.9343 15.7859 13.998 15.9441 13.998 16.1328C13.998 16.3217 13.9344 16.4806 13.8066 16.6084C13.679 16.736 13.5206 16.7997 13.332 16.7998C13.1432 16.7998 12.9842 16.7361 12.8564 16.6084C12.7287 16.4806 12.665 16.3217 12.665 16.1328C12.6651 15.9441 12.7288 15.7859 12.8564 15.6582C12.9842 15.5304 13.1432 15.4668 13.332 15.4668ZM16.1055 16.79H16.1025C16.1107 16.7656 16.1207 16.7418 16.1299 16.7178C16.1208 16.7415 16.1136 16.7659 16.1055 16.79ZM16.1533 16.6582C16.1703 16.618 16.1893 16.5789 16.209 16.54C16.1892 16.5789 16.1703 16.618 16.1533 16.6582ZM16.2344 16.4912C16.2564 16.4508 16.2795 16.411 16.3047 16.3721C16.2795 16.411 16.2564 16.4508 16.2344 16.4912ZM16.5078 16.1113C16.441 16.1843 16.3798 16.2596 16.3262 16.3389C16.3607 16.2878 16.3975 16.2379 16.4375 16.1895L16.5078 16.1113ZM10.665 12.7998C10.8539 12.7998 11.0129 12.8644 11.1406 12.9922C11.2681 13.1199 11.332 13.2781 11.332 13.4668C11.332 13.6555 11.2681 13.8137 11.1406 13.9414C11.0129 14.0692 10.8539 14.1338 10.665 14.1338C10.4763 14.1337 10.3181 14.0691 10.1904 13.9414C10.0627 13.8137 9.99903 13.6556 9.99902 13.4668C9.99902 13.278 10.0627 13.1199 10.1904 12.9922C10.3181 12.8645 10.4763 12.7998 10.665 12.7998ZM13.332 12.7998C13.5207 12.7999 13.679 12.8645 13.8066 12.9922C13.9342 13.1199 13.998 13.2781 13.998 13.4668C13.998 13.6555 13.9342 13.8137 13.8066 13.9414C13.679 14.0691 13.5207 14.1337 13.332 14.1338C13.1432 14.1338 12.9842 14.0692 12.8564 13.9414C12.7288 13.8137 12.665 13.6555 12.665 13.4668C12.665 13.2781 12.7289 13.1199 12.8564 12.9922C12.9842 12.8644 13.1432 12.7998 13.332 12.7998ZM15.998 12.7998C16.1868 12.7998 16.3449 12.8645 16.4727 12.9922C16.6004 13.1199 16.6641 13.278 16.6641 13.4668C16.6641 13.6556 16.6004 13.8137 16.4727 13.9414C16.3449 14.0691 16.1868 14.1337 15.998 14.1338C15.8092 14.1338 15.6502 14.0692 15.5225 13.9414C15.395 13.8137 15.3311 13.6555 15.3311 13.4668C15.3311 13.2781 15.395 13.1199 15.5225 12.9922C15.6502 12.8644 15.8092 12.7998 15.998 12.7998Z" fill="#92B7FF"/>
<path d="M16.573 18.8914C16.9563 19.2746 17.4312 19.4663 17.9978 19.4663C18.5644 19.4663 19.0393 19.2746 19.4226 18.8914C19.8059 18.5081 19.9975 18.0331 19.9975 17.4665C19.9975 16.8999 19.8059 16.425 19.4226 16.0417C19.0393 15.6584 18.5644 15.4668 17.9978 15.4668C17.4312 15.4668 16.9563 15.6584 16.573 16.0417C16.1897 16.425 15.998 16.8999 15.998 17.4665C15.998 18.0331 16.1897 18.5081 16.573 18.8914Z" fill="#92B7FF"/>
</g>
</g>
<defs>
<clipPath id="clip0_2307_46918">
<rect width="26.6632" height="26.6632" fill="white"/>
</clipPath>
</defs>
</svg>
