<svg width="14" height="13" viewBox="0 0 14 13" fill="none" xmlns="http://www.w3.org/2000/svg">
<path d="M3.20833 11.6667H5.54167C5.54167 12.3083 5.01667 12.8333 4.375 12.8333C3.73333 12.8333 3.20833 12.3083 3.20833 11.6667ZM2.04167 10.5C2.04167 10.8208 2.30417 11.0833 2.625 11.0833H6.125C6.44583 11.0833 6.70833 10.8208 6.70833 10.5C6.70833 10.1792 6.44583 9.91667 6.125 9.91667H2.625C2.30417 9.91667 2.04167 10.1792 2.04167 10.5ZM8.75 5.54167C8.75 7.77 7.19833 8.96 6.55083 9.33333H2.19917C1.55167 8.96 0 7.77 0 5.54167C0 3.12667 1.96 1.16667 4.375 1.16667C6.79 1.16667 8.75 3.12667 8.75 5.54167ZM11.5908 4.29917L10.7917 4.66667L11.5908 5.03417L11.9583 5.83333L12.3258 5.03417L13.125 4.66667L12.3258 4.29917L11.9583 3.5L11.5908 4.29917ZM10.2083 3.5L10.7567 2.29833L11.9583 1.75L10.7567 1.20167L10.2083 0L9.66 1.20167L8.45833 1.75L9.66 2.29833L10.2083 3.5Z" fill="#92B7FF"/>
</svg>
