<svg width="18" height="18" viewBox="0 0 18 18" fill="none" xmlns="http://www.w3.org/2000/svg">
<path d="M14.2501 6.2249C14.1876 6.2249 14.1221 6.20615 14.0536 6.16865C13.9846 6.13115 13.9376 6.0749 13.9126 5.9999L13.3126 4.6874L12.0001 4.0874C11.9251 4.0624 11.8688 4.0154 11.8313 3.9464C11.7938 3.8779 11.7751 3.8124 11.7751 3.7499C11.7751 3.6874 11.7938 3.62165 11.8313 3.55265C11.8688 3.48415 11.9251 3.4374 12.0001 3.4124L13.3126 2.8124L13.9126 1.4999C13.9376 1.4249 13.9846 1.36865 14.0536 1.33115C14.1221 1.29365 14.1876 1.2749 14.2501 1.2749C14.3126 1.2749 14.3783 1.29365 14.4473 1.33115C14.5158 1.36865 14.5626 1.4249 14.5876 1.4999L15.1876 2.8124L16.5001 3.4124C16.5751 3.4374 16.6313 3.48415 16.6688 3.55265C16.7063 3.62165 16.7251 3.6874 16.7251 3.7499C16.7251 3.8124 16.7063 3.8779 16.6688 3.9464C16.6313 4.0154 16.5751 4.0624 16.5001 4.0874L15.1876 4.6874L14.5876 5.9999C14.5626 6.0749 14.5158 6.13115 14.4473 6.16865C14.3783 6.20615 14.3126 6.2249 14.2501 6.2249ZM14.2501 16.7249C14.1876 16.7249 14.1221 16.7062 14.0536 16.6687C13.9846 16.6312 13.9376 16.5749 13.9126 16.4999L13.3126 15.1874L12.0001 14.5874C11.9251 14.5624 11.8688 14.5154 11.8313 14.4464C11.7938 14.3779 11.7751 14.3124 11.7751 14.2499C11.7751 14.1874 11.7938 14.1219 11.8313 14.0534C11.8688 13.9844 11.9251 13.9374 12.0001 13.9124L13.3126 13.3124L13.9126 11.9999C13.9376 11.9249 13.9846 11.8687 14.0536 11.8312C14.1221 11.7937 14.1876 11.7749 14.2501 11.7749C14.3126 11.7749 14.3783 11.7937 14.4473 11.8312C14.5158 11.8687 14.5626 11.9249 14.5876 11.9999L15.1876 13.3124L16.5001 13.9124C16.5751 13.9374 16.6313 13.9844 16.6688 14.0534C16.7063 14.1219 16.7251 14.1874 16.7251 14.2499C16.7251 14.3124 16.7063 14.3779 16.6688 14.4464C16.6313 14.5154 16.5751 14.5624 16.5001 14.5874L15.1876 15.1874L14.5876 16.4999C14.5626 16.5749 14.5158 16.6312 14.4473 16.6687C14.3783 16.7062 14.3126 16.7249 14.2501 16.7249ZM6.7501 13.9312C6.6126 13.9312 6.48135 13.8937 6.35635 13.8187C6.23135 13.7437 6.1376 13.6374 6.0751 13.4999L4.8751 10.8749L2.2501 9.6749C2.1126 9.6124 2.00635 9.51865 1.93135 9.39365C1.85635 9.26865 1.81885 9.1374 1.81885 8.9999C1.81885 8.8624 1.85635 8.73115 1.93135 8.60615C2.00635 8.48115 2.1126 8.3874 2.2501 8.3249L4.8751 7.1249L6.0751 4.4999C6.1376 4.3624 6.23135 4.25615 6.35635 4.18115C6.48135 4.10615 6.6126 4.06865 6.7501 4.06865C6.8876 4.06865 7.01885 4.10615 7.14385 4.18115C7.26885 4.25615 7.3626 4.3624 7.4251 4.4999L8.6251 7.1249L11.2501 8.3249C11.3876 8.3874 11.4938 8.48115 11.5688 8.60615C11.6438 8.73115 11.6813 8.8624 11.6813 8.9999C11.6813 9.1374 11.6438 9.26865 11.5688 9.39365C11.4938 9.51865 11.3876 9.6124 11.2501 9.6749L8.6251 10.8749L7.4251 13.4999C7.3626 13.6374 7.26885 13.7437 7.14385 13.8187C7.01885 13.8937 6.8876 13.9312 6.7501 13.9312Z" fill="#0A4ACC"/>
</svg>
