<svg width="74" height="19" viewBox="0 0 74 19" fill="none" xmlns="http://www.w3.org/2000/svg">
<g clip-path="url(#clip0_2307_47030)">
<path d="M33.3633 15.5605H24.9795V19.0017H33.3633V15.5605Z" fill="white"/>
<path d="M47.9845 15.5605H39.6025V19.0017H47.9845V15.5605Z" fill="white"/>
<path d="M20.3034 6.69336H16.7539V19.0009H20.3034V6.69336Z" fill="white"/>
<path d="M41.2022 0H32.8184V3.44303H41.2022V0Z" fill="white"/>
<path d="M26.3464 0H10.5947V3.44303H26.3464V0Z" fill="white"/>
<path d="M62.6061 0H46.8535V3.44303H62.6061V0Z" fill="white"/>
<path d="M56.5641 6.69336H53.0146V19.0009H56.5641V6.69336Z" fill="white"/>
<path d="M13.0514 0H9.50098V19H13.0514V0Z" fill="white"/>
<path d="M27.5553 0H24.0049V19H27.5553V0Z" fill="white"/>
<path d="M34.8073 0H31.2578V19H34.8073V0Z" fill="white"/>
<path d="M42.0602 0H38.5107V19H42.0602V0Z" fill="white"/>
<path d="M49.3131 0H45.7637V19H49.3131V0Z" fill="white"/>
<path d="M63.8161 0H60.2666V19H63.8161V0Z" fill="white"/>
<path d="M5.68815 9.50099C5.68815 11.0251 4.41472 12.2597 2.84359 12.2597C1.27246 12.2597 0 11.0251 0 9.50099C0 7.97685 1.27342 6.74414 2.84359 6.74414C4.41376 6.74414 5.68815 7.97872 5.68815 9.50099Z" fill="white"/>
<path d="M73.4665 9.50099C73.4665 11.0251 72.1931 12.2597 70.6219 12.2597C69.0508 12.2597 67.7793 11.0251 67.7793 9.50099C67.7793 7.97685 69.0518 6.74414 70.6219 6.74414C72.1921 6.74414 73.4665 7.97872 73.4665 9.50099Z" fill="white"/>
</g>
<defs>
<clipPath id="clip0_2307_47030">
<rect width="73.4667" height="19" fill="white"/>
</clipPath>
</defs>
</svg>
