<svg width="27" height="27" viewBox="0 0 27 27" fill="none" xmlns="http://www.w3.org/2000/svg">
<g clip-path="url(#clip0_2307_46975)">
<path d="M21.3305 0H5.33264C2.3875 0 0 2.3875 0 5.33264V21.3305C0 24.2757 2.3875 26.6632 5.33264 26.6632H21.3305C24.2757 26.6632 26.6632 24.2757 26.6632 21.3305V5.33264C26.6632 2.3875 24.2757 0 21.3305 0Z" fill="#E9F1FF"/>
<path d="M13.9985 20.7987C12.9815 20.7987 12.0288 20.6053 11.1405 20.2186C10.2523 19.8319 9.47931 19.3095 8.8216 18.6514C8.16388 17.9933 7.64178 17.2199 7.25529 16.3311C6.8688 15.4423 6.67556 14.4891 6.67556 13.4714C6.67556 12.4537 6.8688 11.5005 7.25529 10.6117C7.64178 9.72295 8.16388 8.94952 8.8216 8.29142C9.47931 7.63332 10.2523 7.11091 11.1405 6.72419C12.0288 6.33748 12.9815 6.14412 13.9985 6.14412C15.0156 6.14412 15.9683 6.33748 16.8565 6.72419C17.7448 7.11091 18.5178 7.63332 19.1755 8.29142C19.8332 8.94952 20.3553 9.72295 20.7418 10.6117C21.1283 11.5005 21.3215 12.4537 21.3215 13.4714C21.3215 14.4891 21.1283 15.4423 20.7418 16.3311C20.3553 17.2199 19.8332 17.9933 19.1755 18.6514C18.5178 19.3095 17.7448 19.8319 16.8565 20.2186C15.9683 20.6053 15.0156 20.7987 13.9985 20.7987ZM16.2768 16.8908L17.4159 15.751L14.8122 13.1457V9.40069H13.1849V13.7971L16.2768 16.8908ZM8.79109 4.80078L9.93022 5.94058L6.47214 9.40069L5.33301 8.26089L8.79109 4.80078ZM19.206 4.80078L22.6641 8.26089L21.5249 9.40069L18.0669 5.94058L19.206 4.80078Z" fill="#92B7FF"/>
</g>
<defs>
<clipPath id="clip0_2307_46975">
<rect width="26.6632" height="26.6632" fill="white"/>
</clipPath>
</defs>
</svg>
